# Blender 4.0.2
# www.blender.org
mtllib paddle.mtl
o Cube.001
v 0.200000 0.750000 -0.050000
v -0.200000 0.750000 -0.050000
v -0.200000 -0.750000 -0.050000
v 0.200000 -0.750000 -0.050000
v -0.200000 0.750000 0.050000
v -0.200000 -0.750000 0.050000
v 0.200000 -0.750000 0.050000
v 0.200000 0.750000 0.050000
vn -0.0000 -0.0000 1.0000
vn -0.0000 -0.0000 -1.0000
vn 1.0000 -0.0000 -0.0000
vn -1.0000 -0.0000 -0.0000
vn -0.0000 1.0000 -0.0000
vn -0.0000 -1.0000 -0.0000
vt 0.126590 0.471418
vt 0.506856 0.487247
vt 0.850188 0.471418
s 0
usemtl Material
f 4/1/1 2/1/1 3/1/1
f 5/2/2 7/2/2 6/2/2
f 2/3/3 6/3/3 3/3/3
f 4/3/4 8/3/4 1/3/4
f 3/1/5 7/1/5 4/1/5
f 1/2/6 5/2/6 2/2/6
f 4/1/1 1/1/1 2/1/1
f 5/2/2 8/2/2 7/2/2
f 2/3/3 5/3/3 6/3/3
f 4/3/4 7/3/4 8/3/4
f 3/1/5 6/1/5 7/1/5
f 1/2/6 8/2/6 5/2/6
